<svg width="14" height="14" viewBox="0 0 14 14" fill="none" xmlns="http://www.w3.org/2000/svg">
<g clip-path="url(#clip0_1886_3397)">
<path fill-rule="evenodd" clip-rule="evenodd" d="M7.66667 5C6.19393 5 5 6.19393 5 7.66667V11C5 12.4727 6.19393 13.6667 7.66667 13.6667H11C12.4727 13.6667 13.6667 12.4727 13.6667 11V7.66667C13.6667 6.19393 12.4727 5 11 5H7.66667Z" fill="white"/>
<path fill-rule="evenodd" clip-rule="evenodd" d="M2.99967 0.333252C1.52691 0.333252 0.333008 1.52716 0.333008 2.99992V6.33325C0.333008 7.91252 1.50721 8.99992 2.99967 8.99992C3.36786 8.99992 3.66634 8.70145 3.66634 8.33325V7.66658C3.66634 5.45745 5.4572 3.66658 7.66634 3.66658H8.33301C8.70121 3.66658 8.99967 3.36811 8.99967 2.99992C8.99967 1.50745 7.91227 0.333252 6.33301 0.333252H2.99967Z" fill="white"/>
</g>
<defs>
<clipPath id="clip0_1886_3397">
<rect width="14" height="14" fill="white"/>
</clipPath>
</defs>
</svg>
