<svg width="14" height="15" viewBox="0 0 14 15" fill="none" xmlns="http://www.w3.org/2000/svg">
<g clip-path="url(#clip0_1759_2136)">
<path fill-rule="evenodd" clip-rule="evenodd" d="M13.5546 0.59753C13.395 0.493166 13.2075 0.439423 13.0168 0.443312C12.8545 0.442964 12.6945 0.482373 12.551 0.558163C12.4075 0.633952 12.2849 0.743885 12.1938 0.878066L4.56397 11.885L1.61483 8.5198C1.42302 8.34316 1.16878 8.2498 0.908049 8.26032C0.647315 8.27084 0.401443 8.38443 0.224526 8.57595C0.0476083 8.76746 -0.0458645 9.02132 -0.0353298 9.28165C-0.0247952 9.54198 0.0888855 9.78743 0.280701 9.96408L3.8281 14.0164L3.91376 14.1144L4.00364 14.2125L4.04015 14.2406L4.11458 14.3108L4.30698 14.3948L4.35051 14.4229L4.65245 14.465H4.66508C4.80112 14.4666 4.93602 14.44 5.06124 14.3869C5.18645 14.3338 5.29927 14.2554 5.39255 14.1565L5.47259 14.0302L13.8383 1.95759C13.9093 1.84972 13.9582 1.72903 13.9823 1.60226C14.0064 1.47549 14.0053 1.34518 13.979 1.21885C13.9526 1.09252 13.9016 0.972697 13.8288 0.866085C13.756 0.759472 13.6628 0.668161 13.5546 0.59753Z" fill="#35C759"/>
</g>
<defs>
<clipPath id="clip0_1759_2136">
<rect width="14" height="14.0217" fill="white" transform="translate(0 0.443359)"/>
</clipPath>
</defs>
</svg>
