<svg width="11" height="11" viewBox="0 0 11 11" fill="none" xmlns="http://www.w3.org/2000/svg">
<path fill-rule="evenodd" clip-rule="evenodd" d="M10.6501 0.120894C10.5247 0.0390205 10.3774 -0.00314053 10.2275 -8.95114e-05C10.1 -0.000362581 9.97433 0.0305539 9.86159 0.0900106C9.74885 0.149467 9.65247 0.23571 9.58093 0.340975L3.58605 8.97595L1.26887 6.33592C1.11815 6.19735 0.918399 6.12411 0.713537 6.13236C0.508674 6.14061 0.315489 6.22972 0.176483 6.37996C0.0374763 6.53021 -0.0359666 6.72936 -0.0276894 6.93359C-0.0194122 7.13782 0.0699083 7.33038 0.220621 7.46895L3.00786 10.648L3.07517 10.7249L3.14579 10.8019L3.17447 10.8239L3.23295 10.8789L3.38412 10.9449L3.41833 10.9669L3.65557 10.9999H3.66549C3.77238 11.0012 3.87837 10.9803 3.97676 10.9387C4.07514 10.897 4.16378 10.8355 4.23707 10.7579L4.29996 10.6588L10.873 1.18786C10.9288 1.10324 10.9672 1.00855 10.9862 0.909102C11.0051 0.809652 11.0042 0.707425 10.9835 0.608321C10.9628 0.509217 10.9227 0.415213 10.8655 0.331576C10.8083 0.247938 10.7351 0.176305 10.6501 0.120894Z" fill="white"/>
</svg>
