<?xml version="1.0" standalone="no"?>
<!DOCTYPE svg PUBLIC "-//W3C//DTD SVG 20010904//EN"
 "http://www.w3.org/TR/2001/REC-SVG-20010904/DTD/svg10.dtd">
<svg version="1.0" xmlns="http://www.w3.org/2000/svg"
 width="686.000000pt" height="686.000000pt" viewBox="0 0 686.000000 686.000000"
 preserveAspectRatio="xMidYMid meet">

<g transform="translate(0.000000,686.000000) scale(0.100000,-0.100000)"
fill="#007aff" stroke="none">
<path d="M286 6849 c-63 -15 -155 -69 -196 -117 -22 -24 -50 -69 -62 -101
l-23 -56 0 -3145 0 -3145 23 -56 c33 -84 90 -142 180 -186 l76 -38 1688 -3
1688 -2 0 1325 0 1325 -445 0 -445 0 0 525 0 525 444 0 444 0 5 503 c4 464 6
510 25 601 60 278 170 494 337 661 165 166 364 269 628 327 95 21 127 23 442
23 342 0 668 -18 693 -37 9 -8 12 -110 10 -467 l-3 -456 -350 -6 c-276 -5
-363 -10 -413 -23 -157 -40 -238 -121 -278 -277 -13 -52 -17 -136 -21 -456
l-5 -393 513 -2 514 -3 -4 -50 c-1 -27 -31 -261 -65 -520 l-61 -470 -445 -5
-445 -5 -3 -1300 c-1 -715 0 -1310 3 -1323 l6 -23 917 3 918 3 76 38 c90 44
147 102 180 186 l23 56 0 3145 0 3145 -23 56 c-33 84 -90 142 -180 186 l-76
38 -3125 2 c-1863 0 -3142 -3 -3165 -8z"/>
</g>
</svg>
