<?xml version="1.0" standalone="no"?>
<!DOCTYPE svg PUBLIC "-//W3C//DTD SVG 20010904//EN"
 "http://www.w3.org/TR/2001/REC-SVG-20010904/DTD/svg10.dtd">
<svg version="1.0" xmlns="http://www.w3.org/2000/svg"
 width="889.000000pt" height="892.000000pt" viewBox="0 0 889.000000 892.000000"
 preserveAspectRatio="xMidYMid meet">

<g transform="translate(0.000000,892.000000) scale(0.100000,-0.100000)"
fill="#007aff" stroke="none">
<path d="M1880 8905 c-549 -60 -919 -221 -1259 -550 -346 -335 -527 -749 -581
-1329 -14 -150 -14 -4931 0 -5081 11 -120 57 -413 68 -429 3 -6 7 -17 8 -26 7
-74 102 -313 180 -453 239 -428 640 -746 1116 -886 199 -58 582 -109 730 -97
43 4 234 9 425 11 192 3 353 5 358 6 6 0 48 -3 95 -7 150 -13 3830 -16 3970
-4 600 53 1011 234 1365 601 263 272 429 613 502 1027 l28 157 0 2640 0 2640
-29 160 c-88 492 -302 873 -657 1170 -317 264 -658 397 -1159 450 -186 20
-4978 20 -5160 0z m3795 -1145 c260 -12 381 -23 540 -50 268 -46 534 -150 740
-289 39 -26 78 -50 88 -54 9 -3 17 -12 17 -19 0 -8 33 -44 74 -80 197 -179
344 -400 446 -673 117 -310 147 -576 160 -1430 17 -1135 -5 -2103 -55 -2395
-61 -356 -205 -688 -386 -894 -22 -24 -39 -47 -39 -51 0 -11 -63 -85 -73 -85
-13 0 -146 -113 -146 -126 -1 -16 -192 -139 -289 -185 -163 -78 -365 -142
-547 -174 -96 -17 -512 -44 -682 -45 -56 0 -103 -3 -105 -7 -3 -8 -2121 2
-2258 10 -208 13 -335 26 -432 43 -123 21 -123 21 -123 24 0 1 -9 4 -20 6 -26
4 -47 10 -65 17 -8 4 -26 9 -40 11 -14 3 -25 5 -25 6 0 1 -13 4 -30 6 -16 3
-33 10 -36 16 -4 6 -11 8 -17 4 -6 -3 -12 -2 -14 4 -1 5 -12 11 -23 13 -11 2
-30 8 -41 15 -12 6 -24 8 -28 5 -3 -3 -6 -1 -6 6 0 7 -4 10 -9 6 -5 -3 -12 -1
-16 5 -4 6 -11 8 -16 5 -5 -4 -9 -1 -9 5 0 6 -5 8 -10 5 -6 -3 -10 -1 -10 5 0
6 -4 8 -10 5 -5 -3 -10 -1 -10 5 0 6 -5 8 -10 5 -6 -3 -10 -1 -10 5 0 6 -5 8
-10 5 -6 -3 -10 -1 -10 5 0 6 -4 8 -10 5 -6 -3 -10 -1 -10 5 0 6 -4 8 -10 5
-5 -3 -10 -1 -10 6 0 7 -3 10 -6 7 -3 -4 -14 2 -25 13 -11 11 -24 17 -28 14
-5 -2 -12 2 -15 11 -3 8 -10 13 -15 10 -5 -3 -12 1 -15 10 -3 8 -10 13 -15 10
-5 -3 -12 1 -15 10 -4 9 -9 14 -12 11 -4 -3 -15 4 -25 16 -10 12 -18 18 -19
13 0 -5 -9 3 -21 17 -11 15 -24 26 -28 24 -4 -1 -20 13 -35 31 -15 17 -31 30
-35 27 -10 -5 -123 109 -116 117 3 3 -11 20 -32 38 -21 18 -32 29 -24 25 8 -5
0 10 -19 33 -18 23 -35 42 -38 42 -2 0 2 -8 9 -17 9 -11 10 -14 2 -9 -7 4 -18
16 -24 28 -9 16 -8 19 3 13 7 -3 3 2 -9 13 -12 11 -19 22 -16 26 3 3 -2 8 -11
12 -9 3 -13 10 -11 15 3 4 -2 17 -12 27 -10 10 -19 25 -21 32 -2 8 -15 24 -29
37 -14 14 -22 30 -19 38 3 8 1 15 -5 15 -6 0 -7 5 -4 10 3 6 1 10 -5 10 -6 0
-8 5 -5 10 3 6 1 10 -5 10 -6 0 -8 5 -5 10 3 6 1 10 -5 10 -7 0 -10 7 -7 14 4
10 1 13 -9 9 -13 -5 -18 9 -16 47 0 8 -14 58 -32 110 -71 204 -104 397 -127
740 -17 246 -17 228 -19 1335 -2 1198 7 1440 59 1720 56 299 157 560 293 757
67 97 189 239 240 280 22 17 51 49 64 70 14 22 37 45 52 51 15 7 65 38 112 69
143 94 269 150 474 213 143 43 436 95 586 104 198 12 2376 13 2625 1z"/>
<path d="M3290 7174 c-580 -25 -853 -104 -1102 -321 -253 -220 -371 -503 -410
-990 -19 -229 -19 -2555 0 -2768 35 -395 115 -640 276 -841 206 -257 488 -391
926 -438 173 -19 595 -27 1485 -27 1334 0 1574 12 1840 97 192 61 334 145 464
273 157 154 243 307 306 543 67 252 78 507 78 1773 0 1043 -7 1333 -39 1578
-41 320 -151 566 -337 751 -214 214 -470 315 -904 357 -108 11 -2371 22 -2583
13z m3082 -576 c159 -74 256 -252 228 -420 -34 -214 -246 -368 -452 -330 -265
49 -410 330 -292 564 46 91 115 154 213 195 48 20 70 23 151 21 78 -3 105 -8
152 -30z m-1767 -428 c661 -63 1215 -490 1443 -1115 81 -222 112 -447 94 -677
-19 -242 -68 -427 -167 -633 -407 -841 -1416 -1189 -2262 -780 -259 126 -496
334 -664 584 -81 120 -114 183 -167 318 -260 657 -85 1391 445 1876 341 311
817 470 1278 427z"/>
<path d="M4265 5560 c-226 -40 -404 -132 -571 -292 -394 -379 -445 -995 -117
-1436 137 -185 315 -313 534 -386 458 -152 962 13 1239 405 128 182 188 359
197 581 7 159 -5 248 -49 388 -55 172 -138 308 -267 437 -164 164 -358 264
-588 303 -140 24 -246 24 -378 0z"/>
<path d="M1720 1755 c30 -30 57 -55 59 -55 3 0 -19 25 -49 55 -30 30 -57 55
-59 55 -3 0 19 -25 49 -55z"/>
</g>
</svg>
