<svg width="34" height="20" viewBox="0 0 34 20" fill="none" xmlns="http://www.w3.org/2000/svg">
<g clip-path="url(#clip0_1850_3015)">
<path fill-rule="evenodd" clip-rule="evenodd" d="M23.7377 13.2842C23.3501 13.2842 23.1923 13.2415 22.8414 13.1988C22.4253 11.3442 20.2942 10.0162 17.9454 9.39615C17.9754 9.32682 18.3126 8.88682 18.3398 8.81882C18.8988 8.20548 19.7094 7.75615 20.6233 7.52015C21.3781 8.50015 22.4974 9.24415 23.7635 9.24415C25.0229 9.24415 26.1367 8.50682 26.8915 7.53482C28.5208 7.97348 29.8604 9.06415 29.8604 10.6335C29.8604 10.6402 27.8122 13.2842 23.7377 13.2842ZM23.6547 6.95215C22.5341 6.95215 21.6256 5.60548 21.6256 4.52148V3.30548C21.6256 2.22148 22.5341 1.34148 23.6547 1.34148C24.774 1.34148 25.6825 2.22148 25.6825 3.30548V4.52148C25.6825 5.60548 24.774 6.95215 23.6547 6.95215ZM21.6746 15.8508C21.6746 15.8615 18.7247 20.0148 12.8169 20.0148C6.94984 20.0148 4 15.8628 4 15.8508C4 13.3508 5.98288 11.6322 8.3724 10.9602C9.49304 12.3295 11.0502 13.3135 12.7761 13.3135C14.5114 13.3135 16.0741 12.3175 17.1961 10.9361C19.6318 11.5868 21.6746 13.3148 21.6746 15.8508ZM12.8373 10.6162C10.9523 10.6162 9.42368 8.06815 9.42368 6.01748V3.71882C9.42368 1.66682 10.9523 0.00415039 12.8373 0.00415039C14.7222 0.00415039 16.2495 1.66682 16.2495 3.71882V6.01748C16.2495 8.06815 14.7222 10.6162 12.8373 10.6162Z" fill="#007AFF"/>
</g>
<defs>
<clipPath id="clip0_1850_3015">
<rect width="34" height="20" fill="white"/>
</clipPath>
</defs>
</svg>
