<svg width="6" height="10" viewBox="0 0 6 10" fill="none" xmlns="http://www.w3.org/2000/svg">
<path fill-rule="evenodd" clip-rule="evenodd" d="M5.75049 5.48706L1.23047 9.78705C1.0876 9.91925 0.900215 9.99268 0.705566 9.99268C0.510918 9.99268 0.323288 9.91925 0.18042 9.78705C0.111862 9.7241 0.057218 9.64762 0.0197754 9.56241C-0.0176672 9.4772 -0.0371094 9.38513 -0.0371094 9.29205C-0.0371094 9.19898 -0.0176672 9.10694 0.0197754 9.02173C0.057218 8.93652 0.111862 8.86001 0.18042 8.79706L4.19043 4.99707L0.18042 1.19705C0.111862 1.1341 0.0572181 1.05759 0.0197755 0.972382C-0.0176671 0.887172 -0.0371093 0.79513 -0.0371093 0.702057C-0.0371093 0.608984 -0.0176671 0.516912 0.0197755 0.431702C0.0572181 0.346492 0.111862 0.270009 0.18042 0.207062C0.323288 0.0748615 0.510918 0.00143433 0.705567 0.00143434C0.900215 0.00143434 1.0876 0.0748615 1.23047 0.207062L5.75049 4.50705C5.81811 4.5695 5.87203 4.64528 5.90894 4.72961C5.94585 4.81394 5.96484 4.90502 5.96484 4.99707C5.96484 5.08912 5.94585 5.18017 5.90894 5.2645C5.87203 5.34883 5.81811 5.42461 5.75049 5.48706Z" fill="#B3B3B3"/>
</svg>
