<?xml version="1.0" standalone="no"?>
<!DOCTYPE svg PUBLIC "-//W3C//DTD SVG 20010904//EN"
 "http://www.w3.org/TR/2001/REC-SVG-20010904/DTD/svg10.dtd">
<svg version="1.0" xmlns="http://www.w3.org/2000/svg"
 width="312.000000pt" height="284.000000pt" viewBox="0 0 312.000000 284.000000"
 preserveAspectRatio="xMidYMid meet">

<g transform="translate(0.000000,284.000000) scale(0.100000,-0.100000)"
fill="#000000" stroke="none">
<path d="M1400 2796 c-109 -26 -250 -65 -265 -74 -5 -3 3 -11 18 -17 23 -10
48 -6 149 22 67 18 157 38 202 45 76 10 87 10 181 -15 55 -15 135 -37 177 -51
67 -21 79 -22 89 -10 20 24 11 28 -199 89 -147 42 -213 44 -352 11z"/>
<path d="M376 2440 c-182 -80 -273 -129 -300 -162 -57 -67 -80 -232 -53 -378
15 -78 20 -88 57 -121 l40 -37 0 -193 c0 -273 17 -668 35 -800 19 -147 38
-180 148 -253 80 -53 244 -145 260 -146 4 0 7 10 7 23 0 17 -16 30 -77 62
-102 53 -211 125 -246 162 -23 24 -31 47 -42 117 -26 159 -38 480 -35 933 l0
63 180 -90 c99 -50 182 -90 185 -90 3 0 5 12 5 28 -1 25 -12 32 -153 100 -194
93 -288 150 -304 183 -41 86 -36 301 9 382 27 49 119 101 350 199 127 53 144
63 130 75 -9 7 -21 12 -27 12 -5 0 -82 -31 -169 -69z"/>
<path d="M2350 2476 c0 -2 8 -10 18 -17 15 -13 16 -12 3 4 -13 16 -21 21 -21
13z"/>
<path d="M2633 2446 c-13 -6 -23 -13 -23 -16 0 -3 33 -18 73 -34 112 -45 312
-146 340 -172 46 -42 58 -232 25 -391 -6 -30 -15 -50 -21 -46 -6 3 -7 1 -3 -6
9 -14 -12 -43 -25 -35 -5 3 -9 1 -9 -4 0 -5 -74 -47 -165 -93 -153 -78 -165
-86 -165 -111 0 -16 4 -28 9 -28 5 0 76 33 157 74 82 41 151 73 153 70 7 -7
-18 -740 -29 -854 -6 -58 -15 -123 -21 -145 -12 -44 -56 -98 -73 -88 -6 3 -8
3 -4 -2 8 -9 -53 -51 -152 -105 -54 -30 -66 -41 -68 -64 -4 -36 -1 -35 133 45
121 72 179 122 199 169 31 76 50 328 62 808 6 278 7 284 30 307 66 67 81 392
22 498 -25 44 -94 88 -240 152 -46 20 -95 42 -109 50 -47 26 -73 31 -96 21z"/>
<path d="M939 2113 c-13 -16 -12 -17 4 -4 9 7 17 15 17 17 0 8 -8 3 -21 -13z"/>
<path d="M2680 2015 c-7 -9 -8 -15 -2 -15 5 0 12 7 16 15 3 8 4 15 2 15 -2 0
-9 -7 -16 -15z"/>
<path d="M2830 1890 c-9 -6 -10 -10 -3 -10 6 0 15 5 18 10 8 12 4 12 -15 0z"/>
<path d="M2098 1339 c-33 -19 -210 -79 -218 -74 -5 3 -10 2 -12 -2 -5 -13
-127 -51 -215 -69 -82 -16 -82 -16 -173 10 -50 14 -152 49 -228 77 -185 69
-172 66 -172 36 0 -20 9 -29 52 -47 113 -48 385 -133 443 -137 72 -6 195 23
390 93 72 25 136 46 143 47 7 0 12 15 12 39 0 21 -1 38 -2 38 -2 0 -11 -5 -20
-11z"/>
<path d="M2015 164 c-109 -39 -301 -93 -353 -100 -26 -3 -63 -8 -84 -11 -43
-6 -191 30 -363 87 -66 22 -121 40 -122 40 -7 0 -2 -50 5 -51 13 -1 35 -8 127
-39 164 -56 286 -84 360 -83 78 1 201 30 398 95 114 37 127 44 127 65 0 28 -7
28 -95 -3z"/>
</g>
</svg>
