<svg width="20" height="17" viewBox="0 0 20 17" fill="none" xmlns="http://www.w3.org/2000/svg">
<g clip-path="url(#clip0_1684_880)">
<path d="M18.2001 0.225313C15.5945 1.33915 4.42223 6.11559 1.33534 7.41741C-0.734875 8.25126 0.477055 9.03308 0.477055 9.03308C0.477055 9.03308 2.24423 9.65842 3.7592 10.1275C5.27395 10.5965 6.08183 10.0755 6.08183 10.0755L13.2014 5.12437C15.726 3.35241 15.1202 4.8116 14.5141 5.43715C13.2014 6.79229 11.0301 8.92883 9.21235 10.6488C8.40447 11.3784 8.8083 12.0037 9.16195 12.3165C10.4747 13.4631 14.0599 15.8084 14.2617 15.9646C15.3283 16.7441 17.4265 17.866 17.7456 15.4956L19.0079 7.31336C19.412 4.55128 19.8158 1.99749 19.8662 1.2679C20.0179 -0.504279 18.2001 0.225313 18.2001 0.225313Z" fill="#007AFF"/>
</g>
<defs>
<clipPath id="clip0_1684_880">
<rect width="20" height="17" fill="white"/>
</clipPath>
</defs>
</svg>
