<?xml version="1.0" standalone="no"?>
<!DOCTYPE svg PUBLIC "-//W3C//DTD SVG 20010904//EN"
 "http://www.w3.org/TR/2001/REC-SVG-20010904/DTD/svg10.dtd">
<svg version="1.0" xmlns="http://www.w3.org/2000/svg"
 width="3568.000000pt" height="3722.000000pt" viewBox="0 0 3568.000000 3722.000000"
 preserveAspectRatio="xMidYMid meet">

<g transform="translate(0.000000,3722.000000) scale(0.100000,-0.100000)"
fill="#000000" stroke="none">
<path d="M1302 34002 l-1302 -3217 0 -12992 0 -12993 4470 0 4470 0 0 -2400 0
-2400 2523 0 2522 1 2275 2399 2275 2399 3700 0 3700 1 4873 4873 4872 4872 0
11338 0 11337 -16537 0 -16538 0 -1303 -3218z m31018 -8936 l0 -8803 -2802
-2772 -2802 -2771 -4438 0 -4437 0 -2377 -2458 c-1307 -1351 -2380 -2459
-2385 -2460 -5 -2 -9 1023 -9 2457 l0 2461 -3565 0 -3565 0 0 11575 0 11575
13190 0 13190 0 0 -8804z"/>
<path d="M14712 22738 l3 -4933 1563 -3 1562 -2 0 4935 0 4935 -1565 0 -1565
0 2 -4932z"/>
<path d="M23490 22735 l0 -4935 1560 0 1560 0 0 4935 0 4935 -1560 0 -1560 0
0 -4935z"/>
</g>
</svg>
