<svg width="25" height="17" viewBox="0 0 25 17" fill="none" xmlns="http://www.w3.org/2000/svg">
<g clip-path="url(#clip0_1684_877)">
<path d="M21.682 0.328386C21.682 0.328386 18.7537 -0.0264893 12.4647 -0.0264893C6.37981 -0.0264893 3.31694 0.328386 3.31694 0.328386C2.53465 0.328668 1.78449 0.628236 1.23143 1.16122C0.678366 1.6942 0.367676 2.41696 0.367676 3.17057V13.8317C0.367531 14.2049 0.443701 14.5746 0.591837 14.9194C0.739973 15.2643 0.957174 15.5777 1.23104 15.8417C1.5049 16.1058 1.83007 16.3152 2.18797 16.4582C2.54587 16.6012 2.92949 16.6748 3.31694 16.6749C3.31694 16.6749 6.16473 17.0277 12.4647 17.0277C18.7614 17.0277 21.682 16.6749 21.682 16.6749C22.0696 16.6752 22.4535 16.6019 22.8117 16.4591C23.1698 16.3163 23.4952 16.1068 23.7693 15.8427C24.0433 15.5786 24.2606 15.2651 24.4087 14.92C24.5568 14.5749 24.6328 14.2051 24.6324 13.8317V3.16845C24.6324 2.79531 24.5561 2.42582 24.4078 2.08111C24.2595 1.7364 24.0421 1.42322 23.7681 1.15947C23.4941 0.895717 23.1688 0.686565 22.8109 0.543963C22.453 0.401361 22.0694 0.328107 21.682 0.328386ZM9.25848 12.7235V4.28195L17.1269 8.50007L9.25848 12.7235Z" fill="#007AFF"/>
</g>
<defs>
<clipPath id="clip0_1684_877">
<rect width="25" height="17" fill="white"/>
</clipPath>
</defs>
</svg>
